<?xml version="1.0" encoding="utf-8"?>
<!-- Generator: Adobe Illustrator 16.0.0, SVG Export Plug-In . SVG Version: 6.00 Build 0)  -->
<!DOCTYPE svg PUBLIC "-//W3C//DTD SVG 1.1//EN" "http://www.w3.org/Graphics/SVG/1.1/DTD/svg11.dtd">
<svg version="1.1" id="Layer_1" xmlns="http://www.w3.org/2000/svg" xmlns:xlink="http://www.w3.org/1999/xlink" x="0px" y="0px"
	 width="148.802px" height="148.907px" viewBox="0 0 148.802 148.907" enable-background="new 0 0 148.802 148.907"
	 xml:space="preserve">
<g display="none">
	<path fill-rule="evenodd" clip-rule="evenodd" fill="#FFFFFF" d="M-226.298,370.584c0-124.952,0-249.904,0-374.928
		c187.88,0,375.782,0,563.832,0c0,124.928,0,249.928,0,374.928C149.624,370.584-38.326,370.584-226.298,370.584z M222.609,185.618
		c0.667,0.181,1.542,0.729,1.968,0.486c3.414-1.941,6.781-3.974,10.056-6.141c0.458-0.303,0.332-1.489,0.477-2.267
		c1.473-0.767,3.177-1.274,4.375-2.348c4.272-3.824,8.373-7.841,12.807-12.039c6.207,5.643,12.158,11.053,18.109,16.463
		c-6.229-4.572-12.459-9.145-16.962-12.448c-9.476,8.739-18.618,17.171-27.761,25.603c0.109,0.117,0.22,0.234,0.33,0.352
		c3.735-2.401,7.47-4.804,11.436-7.354c0.963,2.005,1.79,3.727,2.919,6.078c1.393-3.613,2.551-6.621,3.745-9.724
		c2.011,0.906,3.591,1.619,5.52,2.488c0.321-2.921,0.596-5.409,0.917-8.32c1.902,1.47,3.171,2.449,4.593,3.548
		c0.828-1.505,1.517-2.758,2.349-4.271c2.082,1.2,3.889,2.348,5.788,3.313c3.772,1.917,7.596,3.733,11.397,5.591
		c2.077,1.173,4.154,2.345,6.464,3.647c-5.317,4.536-5.478,5.052-3.767,11.048c1.62-2.022,3.151-3.935,4.814-6.011
		c0.87,0.534,2.053,1.646,2.414,1.423c4.718-2.904,6.728,0.56,9.4,3.413c1.104,1.178,3.727,1.949,5.249,1.505
		c3.092-0.904,5.253-0.407,7.544,1.766c3.093,2.932,6.485,5.549,9.749,8.301c-2.658-4.5-6.024-8.178-9.162-12.041
		c-1.797-2.213-3.731-3.307-6.386-1.876c-2.891,1.559-4.495,0.202-6.156-2.067c-3.22-4.398-6.661-8.636-10.059-13.002
		c-1.736,0.979-3.105,1.752-4.485,2.531c-9.489-8.235-18.758-16.279-28.307-24.566c-3.921,3.752-7.798,7.153-11.301,10.905
		c-3.086,3.305-6.057,5.689-10.411,1.928c-3.678,4.127-7.113,7.96-10.524,11.814c-2.341,2.646-4.225,6.383-8.763,3.198
		c-0.435-0.305-1.656,0.076-2.253,0.502c-8.698,6.197-17.352,12.457-26.017,18.701c1.902,0.073,3.319-0.639,4.665-1.468
		c6.796-4.184,13.518-8.491,20.403-12.521c1.334-0.78,3.725-1.263,4.855-0.588c2.912,1.738,4.544,0.683,6.274-1.522
		C220.036,188.22,221.37,186.956,222.609,185.618z M-71.14,302.073c-1.819-1.736-3.639-3.473-5.458-5.208
		c-5.375-5.69-5.375-5.69-15.537,1.336c5.771,4.684,11.276,9.151,16.782,13.619c-0.433,0.469-0.866,0.938-1.298,1.408
		c-8.137-5.344-16.354-10.569-24.369-16.091c-3.053-2.103-5.735-2.147-8.752-0.33c-2.852,1.719-5.757,3.347-8.798,5.105
		c0.451-6.336,0.271-12.091,1.465-17.545c0.745-3.403,3.564-6.354,5.757-10.016c-1.027,0.485-2.5,0.794-3.412,1.68
		c-4.661,4.521-9.089,9.285-13.811,13.739c-1.113,1.051-3.046,1.232-3.739,1.492c-1.933,6.596-8.367,8.717-11.961,13.24
		c-0.436-0.309-0.872-0.617-1.308-0.926c3.354-4.879,6.708-9.757,10.061-14.636c-0.362-0.281-0.725-0.563-1.087-0.846
		c-9.716,7.473-19.432,14.944-29.148,22.416c-0.26-0.309-0.521-0.617-0.78-0.927c1.521-1.947,3.043-3.895,4.565-5.842
		c-0.255-0.316-0.51-0.634-0.766-0.951c-10.844,6.371-18.041,16.89-28.052,25.554c51.179,0,101.142,0,152.032,0
		c-8.749-7.383-16.707-14.177-24.765-20.85C-65.915,305.513-68.592,303.871-71.14,302.073z M-32.863,104.674
		c0.206-0.406,0.412-0.812,0.617-1.217c-3.834-3.63-7.554-7.392-11.527-10.862c-9.415-8.224-21.73-12.477-30.251-21.997
		c-0.855-0.956-2.694-1.464-4.066-1.445c-4.449,0.059-7.401-2.086-9.875-5.529c-1.742-2.424-4.159-4.386-5.76-6.883
		c-2.969-4.631-6.313-4.555-10.311-1.455c0.228,1.598,0.462,3.233,0.696,4.87c-0.324,0.186-0.648,0.372-0.972,0.558
		c-4.32-4.473-8.64-8.944-13.135-13.597c-2.384,3.572-4.659,6.982-6.914,10.361c-1.715-1.123-3.062-2.006-4.526-2.965
		c-3.109,3.374-5.895,6.699-9.008,9.684c-2.615,2.508-5.46,6.26-8.472,6.536c-5.06,0.466-7.823,2.541-10.225,6.505
		c-0.781,1.29-2.664,2.049-4.19,2.713c-1.583,0.688-3.577,0.599-4.986,1.489c-6.169,3.902-11.794,8.952-18.386,11.812
		c-5.769,2.502-8.501,7.223-12.297,11.423C-141.923,104.674-87.393,104.674-32.863,104.674z M-6.452,217.367
		c54.702,0,108.525,0,163.857,0c-15.787-15.425-30.521-29.821-45.434-44.391c-2.51,2.217-5.184,4.578-8.013,7.077
		c-9.783-9.18-19.21-18.025-28.913-27.13c-9.531,9.065-18.77,17.85-28.144,26.765c-3.162-2.453-6.002-4.657-8.475-6.576
		C23.488,187.842,8.829,202.298-6.452,217.367z M-118.772,189.542c-2.207,1.397-4.464,3.971-6.004,3.596
		c-5.488-1.334-7.464,2.334-10.283,5.493c-2.135,2.394-4.723,4.597-7.524,6.122c-2.849,1.55-6.206,2.166-9.341,3.19
		c0.237,0.64,0.474,1.279,0.711,1.919c5.867-1.902,11.733-3.806,17.522-5.684c-0.353,0.926-0.765,2.004-1.175,3.079
		c6.604-0.885,12.82-1.718,19.036-2.551c-0.07-0.551-0.141-1.103-0.211-1.653c-1.229,0-2.458,0-4.226,0
		c9.256-5.662,12.432-5.702,21.19-0.976c2.64,1.425,5.48,2.479,8.229,3.704c0.128-0.248,0.256-0.497,0.383-0.746
		c-0.61-0.845-1.22-1.689-2.322-3.214c4.073,1.068,7.374,1.935,10.674,2.8c0.069-0.272,0.138-0.544,0.206-0.816
		c-3.96-2.099-7.92-4.198-11.881-6.297c0.167-0.372,0.334-0.743,0.5-1.115c7.393,2.261,14.786,4.521,22.179,6.78
		c0.102-0.182,0.203-0.363,0.305-0.545c-1.885-1.495-3.77-2.989-6.15-4.877c19.214,2.256,36.333,9.516,53.948,15.284
		c-11.146-8.983-22.489-17.372-34.027-25.484c-17.125-12.042-33.443-25.536-54.289-31.124c-1.086-0.291-1.972-1.435-3.051-1.633
		c-2.447-0.449-5.574-1.616-7.322-0.599c-4.796,2.794-9.285,6.279-13.396,10.036c-3.39,3.098-6.502,5.858-11.418,6.404
		c-2.857,0.318-6.109,1.629-8.18,3.565c-4.723,4.415-8.659,9.621-15.081,11.984c-1.533,0.564-2.541,2.518-3.831,3.791
		c-3.738,3.694-7.173,7.791-11.318,10.956c-7.207,5.502-14.857,10.424-22.321,15.589c0.189,0.321,0.379,0.642,0.568,0.963
		c8.309-4.308,16.618-8.614,25.302-13.116c0.121,1.344,0.208,2.302,0.301,3.339c6.544-2.284,12.764-4.454,18.983-6.625
		c0.187,0.431,0.373,0.862,0.56,1.293c-1.44,1.533-2.88,3.066-4.32,4.6c6.358-2.3,13.841-3.362,13.854-13.1
		c-3.026,0.491-5.846,0.949-8.411,1.365c1.818-3.021,3.675-6.104,5.552-9.224c0.214,0.239,0.669,0.749,0.802,0.898
		c2.755-3.26,5.509-6.52,8.263-9.778c0.333,0.25,0.666,0.499,0.998,0.749c-0.122,1.316-0.244,2.633-0.393,4.239
		c1.265-0.877,2.152-1.493,3.04-2.108c0.281,0.181,0.562,0.36,0.842,0.541c-2.513,5.413-5.025,10.826-8.037,17.313
		c3.273-1.543,5.125-2.415,6.976-3.288c0.269,0.356,0.538,0.714,0.807,1.07c-1.765,2.168-3.529,4.336-5.293,6.504
		c7.667-4.87,15.305-9.714,18.352-19.043c-1.992,1.175-3.984,2.35-6.514,3.842c0.532-1.718,0.885-2.856,1.435-4.63
		c-2.242,1.279-3.869,2.207-6.376,3.638c1.962-5.408,3.392-10.172,5.464-14.637c0.777-1.673,2.874-3.041,4.681-3.853
		c2.494-1.121,5.285-1.584,8.457-2.471c0.272,5.3,6.549,8.882,3.612,15.326c5.742-6.265,2.161-12.879,1.086-19.49
		c13.323,4.28,22.249,10.111,23.697,15.463c-3.483-1.64-6.844-3.222-10.401-4.896c-0.035,9.853-6.819,18.794-15.418,20.879
		C-118.772,191.442-118.772,190.599-118.772,189.542z M318.308,320.354c0.037-0.119,0.074-0.238,0.111-0.357
		c-4.988-5.125-10.144-10.102-14.896-15.438c-2.496-2.802-4.712-3.214-7.623-1.054c-3.906,2.899-7.546,2.744-10.939-0.933
		c-0.778-0.842-1.914-1.345-2.755-2.141c-2.139-2.023-4.172-2.722-7.115-1.124c-1.148,0.624-3.709-0.117-4.948-1.096
		c-7.696-6.073-15.199-12.39-23.069-18.876c-5.827,4.475-11.667,8.604-17.068,13.243c-3.063,2.631-5.582,3.063-8.662,0.497
		c-2.688-2.241-4.828-1.726-7.156,0.942c-4.253,4.873-8.859,9.436-13.282,14.09c-2.817-1.588-4.775-2.856-6.877-3.806
		c-1.065-0.48-2.979-0.979-3.51-0.455c-6.045,5.968-11.897,12.13-18.38,18.841c7.145,0,13.086,0,19.337,0
		c0.626-4.208,1.218-8.186,1.788-12.011c2.107,2.068,3.813,4.854,6.265,5.907c4.553,1.955,9.511,3.024,14.369,4.171
		c1.147,0.271,3.146-0.191,3.766-1.039c3.21-4.383,6.099-9.001,9.011-13.401c-1.759-2.552-3.227-4.681-4.695-6.81
		c0.168-0.166,0.336-0.332,0.504-0.498c2.04,1.501,4.081,3.003,6.28,4.621c5.682-4.61,11.267-9.141,17.974-14.582
		c0,9.555,0,17.688,0,26.924c6.134-6.641,11.367-12.307,16.89-18.286c3.631,6.894,6.953,13.2,10.788,20.482
		c1.564-5.99,2.811-10.758,4.208-16.106c8.733,6.341,16.979,12.328,26.366,19.144c0-4.711,0-7.998,0-11.393
		C309.285,313.212,313.796,316.783,318.308,320.354z M20.744,312.164c6.683-4.695,12.945-8.816,18.871-13.375
		c2.917-2.243,4.956-2.011,7.787,0.057c7.453,5.442,15.132,10.573,22.721,15.828c0.254-0.203,0.508-0.407,0.762-0.61
		c-1.121-2.978-2.242-5.955-3.759-9.982c6.152,3.366,11.291,6.179,16.73,9.154c-0.916-8.828-1.769-17.045-2.74-26.407
		c7.201,8.312,13.041,15.564,19.439,22.285c5.665,5.949,12.217,10.94,20.623,12.484c6.974,1.28,8.079,0.327,8.204-6.309
		c2.434-0.137,4.873-0.273,7.596-0.426c-0.187-1.918-0.339-3.483-0.589-6.046c5.875,3.482,11.031,6.539,16.188,9.595
		c0.143-0.263,0.285-0.525,0.428-0.789c-6.241-4.927-12.483-9.854-18.769-14.815c-4.194,2.853-8.153,5.545-12.492,8.496
		c-2.909-4.765-5.648-9.249-8.724-14.284c-3.032,3.421-5.709,6.442-8.504,9.596c-7.935-9.287-15.468-18.104-23.18-27.132
		c-4.312,3.792-8.152,7.229-12.061,10.588c-3.398,2.918-6.721,7.788-10.355,8.06c-3.906,0.292-8.397-3.4-12.153-6.038
		c-3.751-2.634-5.958-1.727-9.324,0.947c-5.964,4.737-9.05,12.478-19.096,13.263c-6.88,0.537-13.278,7.249-19.892,11.201
		c0.165,0.296,0.33,0.592,0.495,0.888c6.668-3.243,13.337-6.486,20.188-9.818C19.637,309.686,20.07,310.655,20.744,312.164z
		 M105.391,62.658c9.212,7.908,18.288,15.7,27.364,23.491c0.26-0.3,0.52-0.601,0.778-0.9c-1.449-3.277-2.897-6.555-4.934-11.16
		c7.335,4.791,13.439,8.777,19.544,12.764c0.22-0.315,0.438-0.632,0.658-0.947c-6.896-6.112-13.793-12.226-20.666-18.317
		c-2.368,1.492-4.292,2.705-6.288,3.963c-6.07-4.753-11.92-9.333-17.845-13.972c-5.707,4.857-11.105,9.451-16.297,13.869
		c-5.046-4.924-9.654-9.493-14.369-13.95c-0.86-0.813-2.691-1.931-3.164-1.602c-2.94,2.051-4.258-0.288-5.815-1.85
		c-2.432-2.438-4.754-4.986-7.407-7.79C46.952,57.282,37.489,67.715,27.889,78.3c-1.731-1.167-2.996-2.308-4.479-2.92
		c-0.986-0.406-2.775-0.556-3.366,0.028C13.27,82.106,6.657,88.966,0,95.783c4.789-2.503,8.867-5.801,12.965-9.073
		c9.767-7.801,9.84-7.927,20.846-2.101c1.751,0.928,3.248,3.498,3.657,5.55c0.825,4.127,0.82,8.42,1.157,12.645
		c0.368,0.056,0.735,0.112,1.103,0.168c5.66-16.807,11.32-33.614,17.227-51.154c4.138,4.395,7.547,8.015,11.014,11.695
		c1.52-0.875,2.695-1.554,3.886-2.239c11.374,12.433,22.514,24.607,33.652,36.782c-1.042-4.638-2.903-8.669-4.788-12.689
		c-5.929-12.646-5.933-12.645,3.816-22.36C104.644,62.898,104.839,62.876,105.391,62.658z M318.457,96.743
		c-4.657-10.457-12.499-17.154-21.722-20.415c-5.221-1.847-9.637-3.858-13.288-7.565c-2.893-2.937-5.064-2.769-7.907-0.149
		c-2.17,1.999-4.746,3.557-7.355,5.468c-6.548-6.26-12.889-12.322-19.816-18.946c-3.699,3.904-7.063,7.552-10.55,11.075
		c-1.011,1.021-2.492,2.532-3.559,2.385c-6.442-0.891-10.247,3.433-14.139,7.087c-3.811,3.576-7.294,4.67-11.622,1.274
		c-3.147-2.469-5.814-1.673-8.847,0.74c-6.51,5.181-13.35,9.947-20.03,14.914c-1.313,0.976-2.519,2.094-3.773,3.146
		c0.41,0.55,0.821,1.1,1.231,1.648c8.997-6.243,17.993-12.485,26.701-18.528c6.254,4.184,8.565,9.363,5.528,16.522
		c0.502,0.076,1.004,0.152,1.505,0.229c6.232-6.166,12.464-12.333,18.7-18.504c-0.591,1.688-1.185,3.389-1.779,5.088
		c0.251,0.123,0.502,0.246,0.752,0.369c6.81-7.672,13.619-15.344,20.656-23.271c5.047,6.234,9.799,12.104,14.033,17.333
		c-3.865,1.638-7.807,2.612-10.886,4.801c-3.328,2.365-5.851,5.863-8.725,8.868c4.995-1.367,9.194-3.744,13.644-5.485
		c1.532-0.599,4.076-0.183,5.473,0.771c2.904,1.985,5.35,4.641,7.984,7.021c-0.145-3.046-1.254-5.447-1.827-7.971
		c-0.312-1.371-0.225-3.349,0.566-4.364c3.05-3.913,6.456-7.548,9.828-11.399c2.916,2.635,5.242,5.81,8.372,7.334
		c6.082,2.965,12.562,5.054,11.438,15.362c2.301-3.419,3.509-5.215,4.567-6.787C309.212,88.147,310.505,95.97,318.457,96.743z
		 M207.158,197.95c0.159,0.397,0.318,0.796,0.479,1.193c0.973-1.484,1.946-2.97,2.903-4.43c1.694,0.268,3.172,0.501,4.65,0.734
		c0.101-0.426,0.201-0.851,0.302-1.276c-2.315-0.516-5.189-2.148-6.837-1.326c-4.151,2.071-7.75,5.251-12.31,8.516
		C200.547,200.036,203.852,198.993,207.158,197.95z M235.42,302.906c2.099-0.177,4.603-0.389,7.455-0.631
		c0.401-2.319,0.885-5.108,1.506-8.695C240.877,297.227,238.063,300.157,235.42,302.906z"/>
	<path fill-rule="evenodd" clip-rule="evenodd" d="M-32.863,104.674c-54.53,0-109.06,0-163.59,0
		c3.796-4.2,6.528-8.921,12.297-11.423c6.592-2.859,12.217-7.909,18.386-11.812c1.409-0.891,3.403-0.801,4.986-1.489
		c1.526-0.664,3.409-1.423,4.19-2.713c2.402-3.964,5.166-6.039,10.225-6.505c3.012-0.276,5.857-4.028,8.472-6.536
		c3.113-2.984,5.898-6.31,9.008-9.684c1.464,0.959,2.812,1.842,4.526,2.965c2.255-3.379,4.53-6.789,6.914-10.361
		c4.495,4.652,8.815,9.124,13.135,13.597c0.324-0.186,0.648-0.372,0.972-0.558c-0.234-1.637-0.468-3.272-0.696-4.87
		c3.999-3.1,7.342-3.176,10.311,1.455c1.602,2.497,4.019,4.459,5.76,6.883c2.474,3.443,5.426,5.588,9.875,5.529
		c1.373-0.019,3.211,0.489,4.066,1.445c8.521,9.521,20.836,13.773,30.251,21.997c3.974,3.471,7.693,7.232,11.527,10.862
		C-32.451,103.863-32.657,104.268-32.863,104.674z M-108.342,84.487c1.975-6.192,5.354-11.415,4.618-15.973
		c-0.752-4.658-5.542-8.665-8.564-12.957c-0.197,0.214-0.395,0.428-0.592,0.642C-111.439,65.18-109.999,74.161-108.342,84.487z
		 M-77.129,87.131c-3.225-12.742-12.621-20.879-21.368-29.795c-1.074,2.487,1.918,9.436,3.854,10.824
		c2.857,2.051,5.77,4.184,8.089,6.788C-83.149,78.775-80.247,83.048-77.129,87.131z M-139.44,73.221
		c-0.365,4.729,5.206,9.299,12.741,10.452c-0.855-2.085-1.816-4.431-2.85-6.951C-132.195,75.786-135.67,74.556-139.44,73.221z
		 M-151.499,87.284c-0.263-0.589-0.526-1.177-0.789-1.766c-6.098-1.778-8.278,3.785-12.103,6.265
		c0.278,0.54,0.556,1.079,0.833,1.618C-159.537,91.362-155.518,89.323-151.499,87.284z M-51.197,92.172
		c0.168-0.546,0.337-1.093,0.505-1.639c-3.223-1.097-4.41-7.722-10.292-3.288C-57.363,89.068-54.28,90.621-51.197,92.172z
		 M-68.616,82.379c-2.148-2.043-4.339-4.126-6.53-6.209c-0.152,0.054-0.303,0.107-0.455,0.162c1.947,3.487,3.894,6.976,6.315,11.313
		C-68.935,84.886-68.749,83.428-68.616,82.379z"/>
	<path fill-rule="evenodd" clip-rule="evenodd" d="M-6.452,217.367c15.281-15.068,29.94-29.524,44.879-44.255
		c2.473,1.919,5.313,4.123,8.475,6.576c9.374-8.915,18.612-17.699,28.144-26.765c9.703,9.104,19.13,17.95,28.913,27.13
		c2.829-2.499,5.503-4.86,8.013-7.077c14.912,14.569,29.646,28.966,45.434,44.391C102.073,217.367,48.25,217.367-6.452,217.367z
		 M125.177,212.585c-16.307-16.408-33.202-33.409-50.105-50.419c-1.685,9.252-6.627,15.997-17.518,17.277
		c4.106,2.748,7.917,4.671,11.631,6.766c3.41,1.924,6.013,4.143,6.302,8.778c0.334,5.386,5.375,9.272,10.981,9.813
		c3.63,0.352,7.299,0.619,10.851,1.385C107.031,208.281,116.69,210.62,125.177,212.585z M113.313,179.583
		c-2.719,8.177-1.099,14.819,6.798,18.583c6.479,3.088,13.282,5.5,19.317,7.957C130.995,197.551,122.212,188.626,113.313,179.583z
		 M39.628,178.917c-3.98,6.371-7.689,12.308-11.398,18.243c0.364,0.251,0.728,0.502,1.092,0.752
		c5.142-4.805,10.285-9.61,15.604-14.581C42.691,181.469,40.927,180,39.628,178.917z"/>
	<path fill-rule="evenodd" clip-rule="evenodd" d="M-71.14,302.073c2.548,1.798,5.225,3.44,7.62,5.424
		c8.058,6.673,16.016,13.467,24.765,20.85c-50.89,0-100.853,0-152.032,0c10.011-8.664,17.208-19.183,28.052-25.554
		c0.255,0.317,0.511,0.635,0.766,0.951c-1.521,1.947-3.043,3.895-4.565,5.842c0.26,0.31,0.52,0.618,0.78,0.927
		c9.716-7.472,19.432-14.943,29.148-22.416c0.363,0.282,0.725,0.564,1.087,0.846c-3.354,4.879-6.707,9.757-10.061,14.636
		c0.436,0.309,0.872,0.617,1.308,0.926c3.594-4.523,10.028-6.645,11.961-13.24c0.693-0.26,2.626-0.441,3.739-1.492
		c4.722-4.454,9.15-9.219,13.811-13.739c0.913-0.886,2.385-1.194,3.412-1.68c-2.193,3.662-5.012,6.612-5.757,10.016
		c-1.194,5.454-1.014,11.209-1.465,17.545c3.041-1.759,5.946-3.387,8.798-5.105c3.018-1.817,5.699-1.772,8.752,0.33
		c8.014,5.521,16.232,10.747,24.369,16.091c0.433-0.47,0.865-0.939,1.298-1.408c-5.506-4.468-11.011-8.936-16.782-13.619
		c10.162-7.026,10.162-7.026,15.537-1.336c-1.522-0.628-3.045-1.255-4.568-1.882c-0.325,0.3-0.649,0.6-0.974,0.9
		c1.886,3.258,3.772,6.516,5.918,10.223C-74.008,304.348-72.574,303.21-71.14,302.073z"/>
	<path fill-rule="evenodd" clip-rule="evenodd" d="M-118.772,189.542c0,1.058,0,1.9-0.002,2.743
		c8.602-2.084,15.386-11.025,15.421-20.878c3.558,1.675,6.918,3.257,10.401,4.896c-1.448-5.352-10.374-11.183-23.697-15.463
		c1.074,6.611,4.656,13.226-1.086,19.49c2.937-6.444-3.339-10.026-3.612-15.326c-3.172,0.887-5.962,1.35-8.457,2.471
		c-1.807,0.812-3.904,2.18-4.681,3.853c-2.072,4.465-3.502,9.229-5.464,14.637c2.507-1.431,4.134-2.358,6.376-3.638
		c-0.55,1.773-0.903,2.912-1.435,4.63c2.529-1.492,4.521-2.667,6.514-3.842c-3.047,9.329-10.685,14.173-18.352,19.043
		c1.764-2.168,3.529-4.336,5.293-6.504c-0.269-0.356-0.538-0.714-0.807-1.07c-1.851,0.873-3.703,1.745-6.976,3.288
		c3.012-6.487,5.524-11.9,8.037-17.313c-0.281-0.181-0.562-0.36-0.842-0.541c-0.888,0.615-1.775,1.231-3.04,2.108
		c0.149-1.606,0.271-2.923,0.393-4.239c-0.333-0.25-0.666-0.499-0.998-0.749c-2.754,3.259-5.508,6.519-8.263,9.778
		c-0.133-0.149-0.588-0.659-0.802-0.898c-1.877,3.119-3.734,6.203-5.552,9.224c2.565-0.416,5.385-0.874,8.411-1.365
		c-0.013,9.737-7.497,10.8-13.854,13.1c1.44-1.533,2.88-3.066,4.32-4.6c-0.187-0.431-0.373-0.862-0.56-1.293
		c-6.22,2.171-12.439,4.341-18.983,6.625c-0.094-1.037-0.18-1.995-0.301-3.339c-8.684,4.502-16.993,8.809-25.302,13.116
		c-0.189-0.321-0.379-0.642-0.568-0.963c7.464-5.165,15.114-10.087,22.321-15.589c4.145-3.165,7.581-7.262,11.318-10.956
		c1.29-1.273,2.297-3.227,3.831-3.791c6.422-2.363,10.358-7.569,15.081-11.984c2.071-1.937,5.323-3.247,8.18-3.565
		c4.917-0.546,8.029-3.307,11.418-6.404c4.112-3.757,8.6-7.242,13.396-10.036c1.748-1.018,4.875,0.149,7.322,0.599
		c1.079,0.198,1.964,1.342,3.051,1.633c20.846,5.588,37.164,19.082,54.289,31.124c11.538,8.112,22.881,16.501,34.027,25.484
		c-17.615-5.769-34.734-13.028-53.948-15.284c2.38,1.888,4.265,3.382,6.15,4.877c-0.102,0.182-0.203,0.363-0.305,0.545
		c-7.393-2.26-14.786-4.52-22.179-6.78c-0.167,0.372-0.333,0.743-0.5,1.115c3.96,2.099,7.921,4.198,11.881,6.297
		c-0.068,0.272-0.137,0.544-0.206,0.816c-3.3-0.865-6.601-1.731-10.674-2.8c1.102,1.524,1.712,2.369,2.322,3.214
		c-0.127,0.249-0.255,0.498-0.383,0.746c-2.749-1.225-5.588-2.279-8.229-3.704c-8.758-4.727-11.934-4.687-21.19,0.976
		c1.769,0,2.997,0,4.226,0c0.07,0.551,0.141,1.103,0.211,1.653c-6.216,0.833-12.432,1.666-19.036,2.551
		c0.41-1.075,0.822-2.153,1.175-3.079c-5.789,1.878-11.655,3.781-17.522,5.684c-0.237-0.64-0.474-1.279-0.711-1.919
		c3.135-1.024,6.492-1.641,9.341-3.19c2.802-1.525,5.39-3.729,7.524-6.122c2.818-3.159,4.794-6.827,10.283-5.493
		C-123.237,193.512-120.979,190.939-118.772,189.542z M-49.629,201.745c0.312-0.383,0.623-0.767,0.935-1.149
		c-6.288-3.839-12.576-7.679-18.864-11.518c0,0.631-0.001,1.261-0.001,1.892c-2.008,0-4.1,0.359-6.002-0.088
		c-2.601-0.611-5.058-1.836-8.253-3.057C-72.755,197.942-59.266,195.062-49.629,201.745z"/>
	<path fill-rule="evenodd" clip-rule="evenodd" d="M318.308,320.354c-4.512-3.571-9.023-7.142-13.321-10.542
		c0,3.395,0,6.682,0,11.393c-9.387-6.815-17.633-12.803-26.366-19.144c-1.397,5.349-2.644,10.116-4.208,16.106
		c-3.835-7.282-7.157-13.589-10.788-20.482c-5.522,5.979-10.756,11.646-16.89,18.286c0-9.235,0-17.369,0-26.924
		c-6.707,5.441-12.292,9.972-17.974,14.582c-2.199-1.618-4.24-3.12-6.28-4.621c-0.168,0.166-0.336,0.332-0.504,0.498
		c1.469,2.129,2.937,4.258,4.695,6.81c-2.912,4.4-5.801,9.019-9.011,13.401c-0.62,0.848-2.618,1.311-3.766,1.039
		c-4.858-1.146-9.816-2.216-14.369-4.171c-2.451-1.053-4.157-3.839-6.265-5.907c-0.57,3.825-1.162,7.803-1.788,12.011
		c-6.251,0-12.192,0-19.337,0c6.482-6.711,12.335-12.873,18.38-18.841c0.53-0.523,2.444-0.025,3.51,0.455
		c2.102,0.949,4.06,2.218,6.877,3.806c4.423-4.654,9.029-9.217,13.282-14.09c2.328-2.668,4.468-3.184,7.156-0.942
		c3.08,2.566,5.6,2.134,8.662-0.497c5.401-4.639,11.241-8.769,17.068-13.243c7.87,6.486,15.373,12.803,23.069,18.876
		c1.239,0.979,3.8,1.72,4.948,1.096c2.943-1.598,4.977-0.899,7.115,1.124c0.841,0.796,1.977,1.299,2.755,2.141
		c3.394,3.677,7.033,3.832,10.939,0.933c2.911-2.16,5.127-1.748,7.623,1.054c4.753,5.336,9.908,10.313,14.896,15.438
		C318.382,320.116,318.345,320.235,318.308,320.354z"/>
	<path fill-rule="evenodd" clip-rule="evenodd" d="M20.744,312.164c-0.674-1.509-1.106-2.478-1.604-3.591
		c-6.851,3.332-13.52,6.575-20.188,9.818c-0.165-0.296-0.33-0.592-0.495-0.888c6.614-3.952,13.011-10.664,19.892-11.201
		c10.046-0.785,13.132-8.525,19.096-13.263c3.366-2.674,5.572-3.581,9.324-0.947c3.756,2.638,8.247,6.33,12.153,6.038
		c3.635-0.271,6.957-5.142,10.355-8.06c3.908-3.358,7.749-6.796,12.061-10.588c7.712,9.027,15.245,17.845,23.18,27.132
		c2.795-3.153,5.472-6.175,8.504-9.596c3.075,5.035,5.814,9.52,8.724,14.284c4.339-2.951,8.298-5.644,12.492-8.496
		c6.285,4.962,12.527,9.889,18.769,14.815c-0.143,0.264-0.285,0.526-0.428,0.789c-5.156-3.056-10.313-6.112-16.188-9.595
		c0.25,2.563,0.402,4.128,0.589,6.046c-2.723,0.152-5.162,0.289-7.596,0.426c-0.125,6.636-1.23,7.589-8.204,6.309
		c-8.406-1.544-14.958-6.535-20.623-12.484c-6.398-6.721-12.238-13.974-19.439-22.285c0.972,9.362,1.824,17.579,2.74,26.407
		c-5.439-2.976-10.578-5.788-16.73-9.154c1.517,4.027,2.638,7.005,3.759,9.982c-0.254,0.203-0.508,0.407-0.762,0.61
		c-7.589-5.255-15.269-10.386-22.721-15.828c-2.831-2.067-4.871-2.3-7.787-0.057C33.689,303.347,27.427,307.468,20.744,312.164z"/>
	<path fill-rule="evenodd" clip-rule="evenodd" d="M318.457,96.743c-7.951-0.772-9.244-8.596-14.846-11.95
		c-1.059,1.572-2.267,3.368-4.567,6.787c1.124-10.309-5.355-12.397-11.438-15.362c-3.13-1.524-5.456-4.699-8.372-7.334
		c-3.372,3.852-6.778,7.486-9.828,11.399c-0.791,1.016-0.878,2.993-0.566,4.364c0.573,2.523,1.683,4.925,1.827,7.971
		c-2.635-2.38-5.08-5.035-7.984-7.021c-1.396-0.954-3.94-1.37-5.473-0.771c-4.449,1.741-8.648,4.118-13.644,5.485
		c2.874-3.005,5.396-6.503,8.725-8.868c3.079-2.188,7.021-3.163,10.886-4.801c-4.234-5.229-8.986-11.099-14.033-17.333
		c-7.037,7.928-13.847,15.6-20.656,23.271c-0.25-0.123-0.501-0.246-0.752-0.369c0.595-1.699,1.188-3.399,1.779-5.088
		c-6.236,6.171-12.468,12.338-18.7,18.504c-0.501-0.076-1.003-0.152-1.505-0.229c3.037-7.159,0.726-12.339-5.528-16.522
		c-8.708,6.043-17.704,12.285-26.701,18.528c-0.41-0.549-0.821-1.099-1.231-1.648c1.255-1.053,2.461-2.171,3.773-3.146
		c6.681-4.967,13.521-9.733,20.03-14.914c3.032-2.413,5.699-3.209,8.847-0.74c4.328,3.396,7.812,2.302,11.622-1.274
		c3.892-3.654,7.696-7.978,14.139-7.087c1.066,0.147,2.548-1.363,3.559-2.385c3.487-3.523,6.851-7.171,10.55-11.075
		c6.928,6.624,13.269,12.687,19.816,18.946c2.609-1.911,5.186-3.469,7.355-5.468c2.843-2.619,5.015-2.787,7.907,0.149
		c3.651,3.707,8.067,5.719,13.288,7.565C305.958,79.588,313.799,86.286,318.457,96.743z"/>
	<path fill-rule="evenodd" clip-rule="evenodd" d="M270.4,179.773c-5.951-5.41-11.902-10.82-18.109-16.463
		c-4.434,4.198-8.534,8.215-12.807,12.039c-1.198,1.073-2.902,1.581-4.375,2.348c-1.392-0.403-2.784-0.807-3.858-1.118
		c-3.03,3.17-5.836,6.104-8.642,9.039c-1.239,1.338-2.573,2.603-3.695,4.032c-1.73,2.205-3.362,3.261-6.274,1.522
		c-1.131-0.675-3.521-0.192-4.855,0.588c-6.886,4.029-13.607,8.337-20.403,12.521c-1.346,0.829-2.763,1.541-4.665,1.468
		c8.665-6.244,17.318-12.504,26.017-18.701c0.597-0.426,1.818-0.807,2.253-0.502c4.538,3.185,6.422-0.552,8.763-3.198
		c3.411-3.854,6.847-7.688,10.524-11.814c4.354,3.762,7.325,1.377,10.411-1.928c3.503-3.752,7.38-7.153,11.301-10.905
		c9.549,8.287,18.817,16.331,28.307,24.566c1.38-0.779,2.749-1.552,4.485-2.531c3.397,4.366,6.839,8.604,10.059,13.002
		c1.661,2.27,3.266,3.626,6.156,2.067c2.654-1.431,4.589-0.337,6.386,1.876c3.138,3.863,6.504,7.541,9.162,12.041
		c-3.264-2.752-6.656-5.369-9.749-8.301c-2.291-2.173-4.452-2.67-7.544-1.766c-1.522,0.444-4.145-0.327-5.249-1.505
		c-2.673-2.854-4.683-6.317-9.4-3.413c-0.361,0.223-1.544-0.889-2.414-1.423c-1.663,2.076-3.194,3.988-4.814,6.011
		c-1.711-5.996-1.551-6.512,3.767-11.048c-2.31-1.303-4.387-2.475-6.464-3.647C273.248,183.011,271.824,181.392,270.4,179.773z"/>
	<path fill-rule="evenodd" clip-rule="evenodd" d="M270.4,179.773c1.424,1.619,2.848,3.238,4.271,4.856
		c-3.802-1.857-7.625-3.674-11.397-5.591c-1.899-0.966-3.706-2.113-5.788-3.313c-0.832,1.513-1.521,2.766-2.349,4.271
		c-1.422-1.099-2.69-2.078-4.593-3.548c-0.321,2.911-0.596,5.399-0.917,8.32c-1.929-0.869-3.509-1.582-5.52-2.488
		c-1.194,3.103-2.353,6.11-3.745,9.724c-1.129-2.352-1.956-4.073-2.919-6.078c-3.966,2.55-7.7,4.952-11.436,7.354
		c-0.11-0.117-0.221-0.234-0.33-0.352c9.143-8.432,18.285-16.863,27.761-25.603C257.941,170.628,264.17,175.201,270.4,179.773z"/>
	<path fill-rule="evenodd" clip-rule="evenodd" fill="#FFFFFF" d="M-71.14,302.073c-1.434,1.138-2.868,2.275-5.083,4.033
		c-2.146-3.707-4.032-6.965-5.918-10.223c0.325-0.301,0.649-0.601,0.974-0.9c1.523,0.627,3.046,1.254,4.568,1.882
		C-74.778,298.6-72.959,300.336-71.14,302.073z"/>
	<path fill-rule="evenodd" clip-rule="evenodd" d="M207.158,197.95c-3.306,1.043-6.61,2.086-10.813,3.411
		c4.56-3.265,8.158-6.444,12.31-8.516c1.647-0.822,4.521,0.811,6.837,1.326c-0.101,0.426-0.201,0.851-0.302,1.276
		c-1.479-0.233-2.956-0.467-4.65-0.734c-0.957,1.46-1.931,2.945-2.903,4.43C207.476,198.746,207.317,198.347,207.158,197.95z"/>
	<path fill-rule="evenodd" clip-rule="evenodd" d="M222.609,185.618c2.806-2.935,5.611-5.869,8.642-9.039
		c1.074,0.312,2.467,0.715,3.858,1.118c-0.145,0.777-0.019,1.964-0.477,2.267c-3.274,2.167-6.642,4.199-10.056,6.141
		C224.151,186.346,223.276,185.798,222.609,185.618z"/>
	<path fill-rule="evenodd" clip-rule="evenodd" d="M235.42,302.906c2.643-2.749,5.457-5.679,8.961-9.326
		c-0.621,3.587-1.104,6.376-1.506,8.695C240.023,302.517,237.519,302.729,235.42,302.906z"/>
	<path fill-rule="evenodd" clip-rule="evenodd" fill="#FFFFFF" d="M-108.342,84.487c-1.657-10.326-3.098-19.307-4.539-28.288
		c0.198-0.214,0.395-0.428,0.592-0.642c3.022,4.292,7.812,8.299,8.564,12.957C-102.988,73.072-106.367,78.294-108.342,84.487z"/>
	<path fill-rule="evenodd" clip-rule="evenodd" fill="#FFFFFF" d="M-77.129,87.131c-3.117-4.083-6.02-8.356-9.426-12.183
		c-2.319-2.604-5.231-4.737-8.089-6.788c-1.935-1.389-4.927-8.337-3.854-10.824C-89.75,66.252-80.354,74.389-77.129,87.131z"/>
	<path fill-rule="evenodd" clip-rule="evenodd" fill="#FFFFFF" d="M-139.44,73.221c3.771,1.335,7.245,2.564,9.892,3.501
		c1.033,2.521,1.995,4.866,2.85,6.951C-134.234,82.52-139.806,77.951-139.44,73.221z"/>
	<path fill-rule="evenodd" clip-rule="evenodd" fill="#FFFFFF" d="M-151.499,87.284c-4.019,2.039-8.039,4.078-12.058,6.117
		c-0.278-0.539-0.556-1.078-0.833-1.618c3.825-2.479,6.004-8.043,12.103-6.265C-152.024,86.107-151.761,86.695-151.499,87.284z"/>
	<path fill-rule="evenodd" clip-rule="evenodd" fill="#FFFFFF" d="M-51.197,92.172c-3.083-1.552-6.167-3.104-9.787-4.927
		c5.882-4.434,7.069,2.191,10.292,3.288C-50.86,91.08-51.028,91.626-51.197,92.172z"/>
	<path fill-rule="evenodd" clip-rule="evenodd" fill="#FFFFFF" d="M-68.616,82.379c-0.133,1.049-0.319,2.507-0.67,5.266
		c-2.421-4.337-4.368-7.825-6.315-11.313c0.151-0.055,0.303-0.108,0.455-0.162C-72.955,78.253-70.764,80.336-68.616,82.379z"/>
	<path fill-rule="evenodd" clip-rule="evenodd" fill="#FFFFFF" d="M125.177,212.585c-8.487-1.966-18.146-4.305-27.858-6.399
		c-3.552-0.766-7.221-1.033-10.851-1.385c-5.606-0.541-10.647-4.428-10.981-9.813c-0.289-4.636-2.892-6.854-6.302-8.778
		c-3.714-2.095-7.524-4.018-11.631-6.766c10.891-1.28,15.833-8.025,17.518-17.277C91.975,179.176,108.871,196.177,125.177,212.585z"
		/>
	<path fill-rule="evenodd" clip-rule="evenodd" fill="#FFFFFF" d="M113.313,179.583c8.899,9.044,17.682,17.969,26.115,26.54
		c-6.035-2.457-12.838-4.869-19.317-7.957C112.214,194.402,110.594,187.759,113.313,179.583z"/>
	<path fill-rule="evenodd" clip-rule="evenodd" fill="#FFFFFF" d="M39.628,178.917c1.299,1.082,3.063,2.552,5.298,4.414
		c-5.32,4.971-10.462,9.776-15.604,14.581c-0.364-0.25-0.728-0.501-1.092-0.752C31.938,191.225,35.647,185.289,39.628,178.917z"/>
	<path fill-rule="evenodd" clip-rule="evenodd" fill="#FFFFFF" d="M-49.629,201.745c-9.637-6.683-23.126-3.803-32.187-13.92
		c3.195,1.221,5.652,2.445,8.253,3.057c1.903,0.447,3.995,0.088,6.002,0.088c0-0.631,0.001-1.261,0.001-1.892
		c6.288,3.839,12.576,7.679,18.864,11.518C-49.006,200.978-49.317,201.362-49.629,201.745z"/>
</g>
<g id="guides">
</g>
<circle id="background" fill-rule="evenodd" clip-rule="evenodd" fill="#FFFFFF" cx="74.401" cy="74.614" r="74.401"/>
<g>
	<defs>
		<circle id="background_1_" cx="74.401" cy="74.614" r="74.401"/>
	</defs>
	<clipPath id="background_2_">
		<use xlink:href="#background_1_"  overflow="visible"/>
	</clipPath>
	<path id="mountain" clip-path="url(#background_2_)" fill-rule="evenodd" clip-rule="evenodd" d="M100.634,65.14
		c-0.453,0.173-0.614,0.19-0.702,0.276c-8.01,7.699-8.007,7.698-3.136,17.718c1.549,3.186,3.078,6.38,3.934,10.055
		c-9.15-9.647-18.301-19.295-27.646-29.146c-0.978,0.543-1.943,1.081-3.191,1.774c-2.848-2.917-5.649-5.785-9.048-9.268
		c-4.853,13.899-9.502,27.217-14.152,40.535c-0.301-0.044-0.604-0.089-0.905-0.133c-0.277-3.348-0.273-6.75-0.951-10.02
		c-0.336-1.625-1.565-3.663-3.004-4.397c-9.042-4.617-9.102-4.517-17.125,1.665c-3.367,2.593-6.718,5.207-10.651,7.189
		c5.469-5.401,10.901-10.837,16.467-16.145c0.485-0.463,1.955-0.344,2.765-0.022c1.219,0.485,2.257,1.389,3.68,2.314
		c7.886-8.388,15.659-16.655,23.874-25.392c2.18,2.222,4.088,4.241,6.085,6.173c1.279,1.237,2.362,3.091,4.777,1.465
		c0.388-0.26,1.892,0.626,2.599,1.27c3.873,3.532,7.659,7.152,11.805,11.054c4.265-3.5,8.699-7.141,13.388-10.99
		c4.867,3.676,9.672,7.305,14.659,11.072c1.64-0.997,3.221-1.958,5.165-3.14c5.646,4.827,11.312,9.671,16.978,14.515
		c-0.181,0.25-0.361,0.5-0.542,0.75c-5.014-3.159-10.027-6.317-16.054-10.114c1.673,3.649,2.862,6.246,4.053,8.843
		c-0.213,0.237-0.427,0.476-0.639,0.713C115.659,77.581,108.203,71.406,100.634,65.14z"/>
</g>
</svg>
